<svg xmlns="http://www.w3.org/2000/svg" xmlns:xlink="http://www.w3.org/1999/xlink" xmlns:lucid="lucid" width="1573.5" height="1010.32"><g transform="translate(-112.5 -25.68084895771674)" lucid:page-tab-id="0_0"><path d="M480 57.68c0-6.63 5.37-12 12-12h766.04c6.63 0 12 5.37 12 12V100c0 6.63-5.37 12-12 12H492c-6.63 0-12-5.37-12-12z" stroke="#000" stroke-opacity="0" stroke-width="2" fill="#fff" fill-opacity="0"/><use xlink:href="#a" transform="matrix(1,0,0,1,485,50.68084895771674) translate(202.98148148148147 35.583333333333336)"/><use xlink:href="#b" transform="matrix(1,0,0,1,485,50.68084895771674) translate(266.537037037037 35.583333333333336)"/><use xlink:href="#c" transform="matrix(1,0,0,1,485,50.68084895771674) translate(304.98148148148147 35.583333333333336)"/><use xlink:href="#d" transform="matrix(1,0,0,1,485,50.68084895771674) translate(407.4259259259259 35.583333333333336)"/><use xlink:href="#e" transform="matrix(1,0,0,1,485,50.68084895771674) translate(495.2037037037037 35.583333333333336)"/><path d="M480 112c0-6.63 5.37-12 12-12h766.04c6.63 0 12 5.37 12 12v36c0 6.63-5.37 12-12 12H492c-6.63 0-12-5.37-12-12z" stroke="#000" stroke-opacity="0" stroke-width="2" fill="#fff" fill-opacity="0"/><use xlink:href="#f" transform="matrix(1,0,0,1,485.00000000000006,105) translate(205.75925925925924 30.708333333333336)"/><use xlink:href="#g" transform="matrix(1,0,0,1,485.00000000000006,105) translate(282.72222222222223 30.708333333333336)"/><use xlink:href="#h" transform="matrix(1,0,0,1,485.00000000000006,105) translate(319.6851851851852 30.708333333333336)"/><use xlink:href="#i" transform="matrix(1,0,0,1,485.00000000000006,105) translate(341.3888888888889 30.708333333333336)"/><use xlink:href="#j" transform="matrix(1,0,0,1,485.00000000000006,105) translate(471.53703703703707 30.708333333333336)"/><use xlink:href="#k" transform="matrix(1,0,0,1,485.00000000000006,105) translate(515.9814814814815 30.708333333333336)"/><path d="M537.62 104.13h676.4M537.64 104.13h-1.02M1214 104.13h1.03" stroke="#b2b2b2" stroke-width="2" fill="none"/><path d="M760 608.5c0-2.76 2.24-5 5-5h270c2.76 0 5 2.24 5 5v296c0 2.76-2.24 5-5 5H765c-2.76 0-5-2.24-5-5z" fill="#fff"/><path d="M760 603.5h280v40H760z" fill="#ccc"/><path d="M760 608.5c0-2.76 2.24-5 5-5h270c2.76 0 5 2.24 5 5v296c0 2.76-2.24 5-5 5H765c-2.76 0-5-2.24-5-5zM760 643.5h280M900 643.5v266" stroke="#666" stroke-width="3" fill="none"/><use xlink:href="#l" transform="matrix(1,0,0,1,770,603.5) translate(111.2488888888889 19.2)"/><use xlink:href="#m" transform="matrix(1,0,0,1,765,646) translate(0 17.1)"/><use xlink:href="#n" transform="matrix(1,0,0,1,905,646) translate(0 17.1)"/><use xlink:href="#o" transform="matrix(1,0,0,1,765,678) translate(0 17.1)"/><use xlink:href="#p" transform="matrix(1,0,0,1,905,678) translate(0 17.1)"/><use xlink:href="#q" transform="matrix(1,0,0,1,765,710) translate(0 17.1)"/><use xlink:href="#n" transform="matrix(1,0,0,1,905,710) translate(0 17.1)"/><use xlink:href="#r" transform="matrix(1,0,0,1,765,742) translate(0 17.1)"/><use xlink:href="#n" transform="matrix(1,0,0,1,905,742) translate(0 17.1)"/><use xlink:href="#s" transform="matrix(1,0,0,1,765,774) translate(0 16.799999999999997)"/><use xlink:href="#t" transform="matrix(1,0,0,1,765,774) translate(80 16.799999999999997)"/><use xlink:href="#u" transform="matrix(1,0,0,1,765,774) translate(0 38.4)"/><use xlink:href="#v" transform="matrix(1,0,0,1,765,774) translate(20 38.4)"/><use xlink:href="#w" transform="matrix(1,0,0,1,905,774) translate(0 27.6)"/><use xlink:href="#x" transform="matrix(1,0,0,1,765,827) translate(0 17.1)"/><use xlink:href="#y" transform="matrix(1,0,0,1,905,827) translate(0 17.1)"/><use xlink:href="#z" transform="matrix(1,0,0,1,905,827) translate(68.85000000000001 17.1)"/><use xlink:href="#A" transform="matrix(1,0,0,1,765,859) translate(0 16.799999999999997)"/><use xlink:href="#B" transform="matrix(1,0,0,1,765,859) translate(54.95 16.799999999999997)"/><use xlink:href="#C" transform="matrix(1,0,0,1,765,859) translate(93.85 16.799999999999997)"/><use xlink:href="#D" transform="matrix(1,0,0,1,765,859) translate(0 38.4)"/><use xlink:href="#w" transform="matrix(1,0,0,1,905,859) translate(0 27.6)"/><path d="M1320 225c0-2.76 2.24-5 5-5h270c2.76 0 5 2.24 5 5v222c0 2.76-2.24 5-5 5h-270c-2.76 0-5-2.24-5-5z" fill="#fff"/><path d="M1320 220h280v40h-280z" fill="#ccc"/><path d="M1320 225c0-2.76 2.24-5 5-5h270c2.76 0 5 2.24 5 5v222c0 2.76-2.24 5-5 5h-270c-2.76 0-5-2.24-5-5zM1320 260h280M1460 260v192" stroke="#666" stroke-width="3" fill="none"/><use xlink:href="#E" transform="matrix(1,0,0,1,1330,220) translate(78.20888888888888 19.2)"/><use xlink:href="#F" transform="matrix(1,0,0,1,1325,262.5) translate(0 17.1)"/><use xlink:href="#n" transform="matrix(1,0,0,1,1465,262.5) translate(0 17.1)"/><use xlink:href="#G" transform="matrix(1,0,0,1,1325,294.5) translate(0 17.1)"/><use xlink:href="#n" transform="matrix(1,0,0,1,1465,294.5) translate(0 17.1)"/><use xlink:href="#m" transform="matrix(1,0,0,1,1325,326.5) translate(0 17.1)"/><use xlink:href="#n" transform="matrix(1,0,0,1,1465,326.5) translate(0 17.1)"/><use xlink:href="#H" transform="matrix(1,0,0,1,1325,358.5) translate(0 17.1)"/><use xlink:href="#H" transform="matrix(1,0,0,1,1465,358.5) translate(0 17.1)"/><use xlink:href="#I" transform="matrix(1,0,0,1,1325,390.5) translate(0 17.1)"/><use xlink:href="#n" transform="matrix(1,0,0,1,1465,390.5) translate(0 17.1)"/><use xlink:href="#J" transform="matrix(1,0,0,1,1325,422.5) translate(0 17.1)"/><use xlink:href="#K" transform="matrix(1,0,0,1,1465,422.5) translate(0 17.1)"/><path d="M1320 608.5c0-2.76 2.24-5 5-5h270c2.76 0 5 2.24 5 5v158c0 2.76-2.24 5-5 5h-270c-2.76 0-5-2.24-5-5z" fill="#fff"/><path d="M1320 603.5h280v40h-280z" fill="#ccc"/><path d="M1320 608.5c0-2.76 2.24-5 5-5h270c2.76 0 5 2.24 5 5v158c0 2.76-2.24 5-5 5h-270c-2.76 0-5-2.24-5-5zM1320 643.5h280M1460 643.5v128" stroke="#666" stroke-width="3" fill="none"/><use xlink:href="#L" transform="matrix(1,0,0,1,1330,603.5) translate(88.67111111111112 19.2)"/><use xlink:href="#M" transform="matrix(1,0,0,1,1325,646) translate(0 17.1)"/><use xlink:href="#n" transform="matrix(1,0,0,1,1465,646) translate(0 17.1)"/><use xlink:href="#G" transform="matrix(1,0,0,1,1325,678) translate(0 17.1)"/><use xlink:href="#n" transform="matrix(1,0,0,1,1465,678) translate(0 17.1)"/><use xlink:href="#N" transform="matrix(1,0,0,1,1325,710) translate(0 17.1)"/><use xlink:href="#n" transform="matrix(1,0,0,1,1465,710) translate(0 17.1)"/><use xlink:href="#O" transform="matrix(1,0,0,1,1325,742) translate(0 17.1)"/><use xlink:href="#n" transform="matrix(1,0,0,1,1465,742) translate(0 17.1)"/><path d="M160 608.5c0-2.76 2.24-5 5-5h270c2.76 0 5 2.24 5 5v295c0 2.76-2.24 5-5 5H165c-2.76 0-5-2.24-5-5z" fill="#fff"/><path d="M160 603.5h280v40H160z" fill="#ccc"/><path d="M160 608.5c0-2.76 2.24-5 5-5h270c2.76 0 5 2.24 5 5v295c0 2.76-2.24 5-5 5H165c-2.76 0-5-2.24-5-5zM160 643.5h280M300 643.5v265" stroke="#666" stroke-width="3" fill="none"/><use xlink:href="#P" transform="matrix(1,0,0,1,170,603.5) translate(102.75111111111111 19.2)"/><use xlink:href="#Q" transform="matrix(1,0,0,1,165,646) translate(0 17.1)"/><use xlink:href="#n" transform="matrix(1,0,0,1,305,646) translate(0 17.1)"/><use xlink:href="#q" transform="matrix(1,0,0,1,165,678) translate(0 17.1)"/><use xlink:href="#n" transform="matrix(1,0,0,1,305,678) translate(0 17.1)"/><use xlink:href="#R" transform="matrix(1,0,0,1,165,710) translate(0 17.1)"/><use xlink:href="#p" transform="matrix(1,0,0,1,305,710) translate(0 17.1)"/><use xlink:href="#S" transform="matrix(1,0,0,1,165,742) translate(0 17.1)"/><use xlink:href="#n" transform="matrix(1,0,0,1,305,742) translate(0 17.1)"/><use xlink:href="#T" transform="matrix(1,0,0,1,165,774) translate(0 17.1)"/><use xlink:href="#U" transform="matrix(1,0,0,1,165,774) translate(42.95 17.1)"/><use xlink:href="#H" transform="matrix(1,0,0,1,305,774) translate(0 17.1)"/><use xlink:href="#J" transform="matrix(1,0,0,1,165,806) translate(0 17.1)"/><use xlink:href="#V" transform="matrix(1,0,0,1,305,806) translate(0 17.1)"/><use xlink:href="#W" transform="matrix(1,0,0,1,165,838) translate(0 16.799999999999997)"/><use xlink:href="#X" transform="matrix(1,0,0,1,165,838) translate(0 38.4)"/><use xlink:href="#Y" transform="matrix(1,0,0,1,165,838) translate(42.900000000000006 38.4)"/><use xlink:href="#w" transform="matrix(1,0,0,1,305,838) translate(0 27.6)"/><use xlink:href="#Z" transform="matrix(1,0,0,1,165,891) translate(0 14.4)"/><use xlink:href="#p" transform="matrix(1,0,0,1,305,891) translate(0 14.4)"/><path d="M160 225c0-2.76 2.24-5 5-5h270c2.76 0 5 2.24 5 5v222c0 2.76-2.24 5-5 5H165c-2.76 0-5-2.24-5-5z" fill="#fff"/><path d="M160 220h280v40H160z" fill="#ccc"/><path d="M160 225c0-2.76 2.24-5 5-5h270c2.76 0 5 2.24 5 5v222c0 2.76-2.24 5-5 5H165c-2.76 0-5-2.24-5-5zM160 260h280M300 260v192" stroke="#666" stroke-width="3" fill="none"/><use xlink:href="#aa" transform="matrix(1,0,0,1,170,220) translate(105.21333333333334 19.2)"/><use xlink:href="#Q" transform="matrix(1,0,0,1,165,262.5) translate(0 14.4)"/><use xlink:href="#n" transform="matrix(1,0,0,1,305,262.5) translate(0 14.4)"/><use xlink:href="#ab" transform="matrix(1,0,0,1,165,294.5) translate(0 14.4)"/><use xlink:href="#w" transform="matrix(1,0,0,1,305,294.5) translate(0 14.4)"/><use xlink:href="#ac" transform="matrix(1,0,0,1,165,326.5) translate(0 14.4)"/><use xlink:href="#n" transform="matrix(1,0,0,1,305,326.5) translate(0 14.4)"/><use xlink:href="#ad" transform="matrix(1,0,0,1,165,358.5) translate(0 14.4)"/><use xlink:href="#n" transform="matrix(1,0,0,1,305,358.5) translate(0 14.4)"/><use xlink:href="#ae" transform="matrix(1,0,0,1,165,390.5) translate(0 14.4)"/><use xlink:href="#n" transform="matrix(1,0,0,1,305,390.5) translate(0 14.4)"/><use xlink:href="#af" transform="matrix(1,0,0,1,165,422.5) translate(0 14.4)"/><use xlink:href="#H" transform="matrix(1,0,0,1,305,422.5) translate(0 14.4)"/><path d="M760 225c0-2.76 2.24-5 5-5h270c2.76 0 5 2.24 5 5v222c0 2.76-2.24 5-5 5H765c-2.76 0-5-2.24-5-5z" fill="#fff"/><path d="M760 220h280v40H760z" fill="#ccc"/><path d="M760 225c0-2.76 2.24-5 5-5h270c2.76 0 5 2.24 5 5v222c0 2.76-2.24 5-5 5H765c-2.76 0-5-2.24-5-5zM760 260h280M900 260v192" stroke="#666" stroke-width="3" fill="none"/><use xlink:href="#ag" transform="matrix(1,0,0,1,770,220) translate(106.55 14.4)"/><use xlink:href="#ah" transform="matrix(1,0,0,1,765,262.5) translate(0 17.1)"/><use xlink:href="#ai" transform="matrix(1,0,0,1,765,262.5) translate(62.95 17.1)"/><use xlink:href="#n" transform="matrix(1,0,0,1,905,262.5) translate(0 17.1)"/><use xlink:href="#N" transform="matrix(1,0,0,1,765,294.5) translate(0 17.1)"/><use xlink:href="#n" transform="matrix(1,0,0,1,905,294.5) translate(0 17.1)"/><use xlink:href="#aj" transform="matrix(1,0,0,1,765,326.5) translate(0 17.1)"/><use xlink:href="#n" transform="matrix(1,0,0,1,905,326.5) translate(0 17.1)"/><use xlink:href="#ak" transform="matrix(1,0,0,1,765,358.5) translate(0 17.1)"/><use xlink:href="#n" transform="matrix(1,0,0,1,905,358.5) translate(0 17.1)"/><use xlink:href="#al" transform="matrix(1,0,0,1,765,390.5) translate(0 17.1)"/><use xlink:href="#n" transform="matrix(1,0,0,1,905,390.5) translate(0 17.1)"/><use xlink:href="#q" transform="matrix(1,0,0,1,765,422.5) translate(0 17.1)"/><use xlink:href="#n" transform="matrix(1,0,0,1,905,422.5) translate(0 17.1)"/><path d="M139.1 276h-8.6c-6.63 0-12 5.37-12 12v359.5c0 6.63 5.37 12 12 12h8.6" stroke="#000" fill="none"/><path d="M158.28 286l-20-10 20-10M158.28 276h-20M158.28 669.5l-20-10 20-10M158.28 659.5h-20" stroke="#000" fill="#fff"/><path d="M459.74 276h280.52" stroke="#000" stroke-width="3" fill="none"/><path d="M442.17 266l20 10-20 10M442.17 276h20M757.83 286l-20-10 20-10M757.83 276h-20" stroke="#000" stroke-width="3" fill="#fff"/><path d="M1062.12 276h7.38c6.63 0 12 5.37 12 12v227.75c0 6.63-5.37 12-12 12h-339c-6.63 0-12 5.37-12 12V647.5c0 6.63 5.37 12 12 12h9.76" stroke="#000" stroke-width="3" fill="none"/><path d="M1046.35 276l14.27-4.64v9.28z" stroke="#000" stroke-width="3"/><path d="M757.83 669.5l-20-10 20-10M757.83 659.5h-20" stroke="#000" stroke-width="3" fill="#fff"/><path d="M1062.12 659.5H1168c6.63 0 12-5.37 12-12V288c0-6.63 5.37-12 12-12h105.88" stroke="#000" stroke-width="3" fill="none"/><path d="M1046.35 659.5l14.27-4.64v9.28zM1313.65 276l-14.27 4.64v-9.28z" stroke="#000" stroke-width="3"/><path d="M459.74 819.5H618c6.63 0 12 5.37 12 12V928c0 6.63 5.37 12 12 12h556c6.63 0 12-5.37 12-12V671.5c0-6.63 5.37-12 12-12h78.26" stroke="#000" stroke-width="3" fill="none"/><path d="M442.17 809.5l20 10-20 10M442.17 819.5h20M1317.83 669.5l-20-10 20-10M1317.83 659.5h-20" stroke="#000" stroke-width="3" fill="#fff"/><path d="M1062.12 276H1138c6.63 0 12 5.37 12 12v40c0 6.63 5.37 12 12 12h138.26" stroke="#000" stroke-width="3" fill="none"/><path d="M1046.35 276l14.27-4.64v9.28z" stroke="#000" stroke-width="3"/><path d="M1317.83 350l-20-10 20-10M1317.83 340h-20" stroke="#000" stroke-width="3" fill="#fff"/><path d="M462.12 898.5H538c6.63 0 12 5.37 12 12v97.5c0 6.63 5.37 12 12 12h1096c6.63 0 12-5.37 12-12V288c0-6.63-5.37-12-12-12h-38.26" stroke="#000" stroke-width="3" fill="none"/><path d="M446.35 898.5l14.27-4.64v9.28z" stroke="#000" stroke-width="3"/><path d="M1602.17 266l20 10-20 10M1602.17 276h20" stroke="#000" stroke-width="3" fill="#fff"/><path d="M462.12 723.5H588c6.63 0 12-5.37 12-12v-8c0-6.63 5.37-12 12-12h128.26" stroke="#000" stroke-width="3" fill="none"/><path d="M446.35 723.5l14.27-4.64v9.28z" stroke="#000" stroke-width="3"/><path d="M757.83 701.5l-20-10 20-10M757.83 691.5h-20" stroke="#000" stroke-width="3" fill="#fff"/><defs><path d="M30 0v-248h187v28H63v79h144v27H63v87h162V0H30" id="am"/><path d="M233-177c-1 41-23 64-60 70L243 0h-38l-65-103H63V0H30v-248c88 3 205-21 203 71zM63-129c60-2 137 13 137-47 0-61-80-42-137-45v92" id="an"/><path d="M30-248c118-7 216 8 213 122C240-48 200 0 122 0H30v-248zM63-27c89 8 146-16 146-99s-60-101-146-95v194" id="ao"/><g id="a"><use transform="matrix(0.07407407407407408,0,0,0.07407407407407408,0,0)" xlink:href="#am"/><use transform="matrix(0.07407407407407408,0,0,0.07407407407407408,17.77777777777778,0)" xlink:href="#an"/><use transform="matrix(0.07407407407407408,0,0,0.07407407407407408,36.96296296296296,0)" xlink:href="#ao"/></g><path d="M101-234c-31-9-42 10-38 44h38v23H63V0H32v-167H5v-23h27c-7-52 17-82 69-68v24" id="ap"/><path d="M100-194c62-1 85 37 85 99 1 63-27 99-86 99S16-35 15-95c0-66 28-99 85-99zM99-20c44 1 53-31 53-75 0-43-8-75-51-75s-53 32-53 75 10 74 51 75" id="aq"/><path d="M114-163C36-179 61-72 57 0H25l-1-190h30c1 12-1 29 2 39 6-27 23-49 58-41v29" id="ar"/><g id="b"><use transform="matrix(0.07407407407407408,0,0,0.07407407407407408,0,0)" xlink:href="#ap"/><use transform="matrix(0.07407407407407408,0,0,0.07407407407407408,7.407407407407408,0)" xlink:href="#aq"/><use transform="matrix(0.07407407407407408,0,0,0.07407407407407408,22.222222222222225,0)" xlink:href="#ar"/></g><path d="M109-170H84l-4-78h32zm-65 0H19l-4-78h33" id="as"/><path d="M160-131c35 5 61 23 61 61C221 17 115-2 30 0v-248c76 3 177-17 177 60 0 33-19 50-47 57zm-97-11c50-1 110 9 110-42 0-47-63-36-110-37v79zm0 115c55-2 124 14 124-45 0-56-70-42-124-44v89" id="at"/><path d="M24-231v-30h32v30H24zM24 0v-190h32V0H24" id="au"/><path d="M24 0v-261h32V0H24" id="av"/><path d="M141-36C126-15 110 5 73 4 37 3 15-17 15-53c-1-64 63-63 125-63 3-35-9-54-41-54-24 1-41 7-42 31l-33-3c5-37 33-52 76-52 45 0 72 20 72 64v82c-1 20 7 32 28 27v20c-31 9-61-2-59-35zM48-53c0 20 12 33 32 33 41-3 63-29 60-74-43 2-92-5-92 41" id="aw"/><path d="M115-194c53 0 69 39 70 98 0 66-23 100-70 100C84 3 66-7 56-30L54 0H23l1-261h32v101c10-23 28-34 59-34zm-8 174c40 0 45-34 45-75 0-40-5-75-45-74-42 0-51 32-51 76 0 43 10 73 51 73" id="ax"/><path d="M100-194c63 0 86 42 84 106H49c0 40 14 67 53 68 26 1 43-12 49-29l28 8c-11 28-37 45-77 45C44 4 14-33 15-96c1-61 26-98 85-98zm52 81c6-60-76-77-97-28-3 7-6 17-6 28h103" id="ay"/><g id="c"><use transform="matrix(0.07407407407407408,0,0,0.07407407407407408,0,0)" xlink:href="#as"/><use transform="matrix(0.07407407407407408,0,0,0.07407407407407408,9.407407407407408,0)" xlink:href="#at"/><use transform="matrix(0.07407407407407408,0,0,0.07407407407407408,27.18518518518519,0)" xlink:href="#au"/><use transform="matrix(0.07407407407407408,0,0,0.07407407407407408,33.03703703703704,0)" xlink:href="#av"/><use transform="matrix(0.07407407407407408,0,0,0.07407407407407408,38.88888888888889,0)" xlink:href="#av"/><use transform="matrix(0.07407407407407408,0,0,0.07407407407407408,44.74074074074075,0)" xlink:href="#aw"/><use transform="matrix(0.07407407407407408,0,0,0.07407407407407408,59.555555555555564,0)" xlink:href="#ax"/><use transform="matrix(0.07407407407407408,0,0,0.07407407407407408,74.37037037037038,0)" xlink:href="#av"/><use transform="matrix(0.07407407407407408,0,0,0.07407407407407408,80.22222222222223,0)" xlink:href="#ay"/></g><path d="M197 0v-115H63V0H30v-248h33v105h134v-105h34V0h-34" id="az"/><path d="M84 4C-5 8 30-112 23-190h32v120c0 31 7 50 39 49 72-2 45-101 50-169h31l1 190h-30c-1-10 1-25-2-33-11 22-28 36-60 37" id="aA"/><path d="M135-143c-3-34-86-38-87 0 15 53 115 12 119 90S17 21 10-45l28-5c4 36 97 45 98 0-10-56-113-15-118-90-4-57 82-63 122-42 12 7 21 19 24 35" id="aB"/><g id="d"><use transform="matrix(0.07407407407407408,0,0,0.07407407407407408,0,0)" xlink:href="#az"/><use transform="matrix(0.07407407407407408,0,0,0.07407407407407408,19.185185185185187,0)" xlink:href="#aq"/><use transform="matrix(0.07407407407407408,0,0,0.07407407407407408,34,0)" xlink:href="#aA"/><use transform="matrix(0.07407407407407408,0,0,0.07407407407407408,48.81481481481481,0)" xlink:href="#ar"/><use transform="matrix(0.07407407407407408,0,0,0.07407407407407408,57.62962962962964,0)" xlink:href="#aB"/><use transform="matrix(0.07407407407407408,0,0,0.07407407407407408,70.96296296296296,0)" xlink:href="#as"/></g><path d="M30-248c87 1 191-15 191 75 0 78-77 80-158 76V0H30v-248zm33 125c57 0 124 11 124-50 0-59-68-47-124-48v98" id="aC"/><path d="M24-231v-30h32v30H24zM-9 49c24 4 33-6 33-30v-209h32V24c2 40-23 58-65 49V49" id="aD"/><path d="M96-169c-40 0-48 33-48 73s9 75 48 75c24 0 41-14 43-38l32 2c-6 37-31 61-74 61-59 0-76-41-82-99-10-93 101-131 147-64 4 7 5 14 7 22l-32 3c-4-21-16-35-41-35" id="aE"/><path d="M59-47c-2 24 18 29 38 22v24C64 9 27 4 27-40v-127H5v-23h24l9-43h21v43h35v23H59v120" id="aF"/><g id="e"><use transform="matrix(0.07407407407407408,0,0,0.07407407407407408,0,0)" xlink:href="#aC"/><use transform="matrix(0.07407407407407408,0,0,0.07407407407407408,17.77777777777778,0)" xlink:href="#ar"/><use transform="matrix(0.07407407407407408,0,0,0.07407407407407408,26.592592592592595,0)" xlink:href="#aq"/><use transform="matrix(0.07407407407407408,0,0,0.07407407407407408,41.40740740740741,0)" xlink:href="#aD"/><use transform="matrix(0.07407407407407408,0,0,0.07407407407407408,47.25925925925927,0)" xlink:href="#ay"/><use transform="matrix(0.07407407407407408,0,0,0.07407407407407408,62.07407407407408,0)" xlink:href="#aE"/><use transform="matrix(0.07407407407407408,0,0,0.07407407407407408,75.40740740740742,0)" xlink:href="#aF"/></g><path d="M153-248C145-148 188 4 80 4 36 3 13-21 6-62l32-5c4 25 16 42 43 43 27 0 39-20 39-49v-147H72v-28h81" id="aG"/><path d="M117-194c89-4 53 116 60 194h-32v-121c0-31-8-49-39-48C34-167 62-67 57 0H25l-1-190h30c1 10-1 24 2 32 11-22 29-35 61-36" id="aH"/><g id="f"><use transform="matrix(0.07407407407407408,0,0,0.07407407407407408,0,0)" xlink:href="#aG"/><use transform="matrix(0.07407407407407408,0,0,0.07407407407407408,13.333333333333336,0)" xlink:href="#aA"/><use transform="matrix(0.07407407407407408,0,0,0.07407407407407408,28.148148148148152,0)" xlink:href="#aB"/><use transform="matrix(0.07407407407407408,0,0,0.07407407407407408,41.48148148148149,0)" xlink:href="#aF"/><use transform="matrix(0.07407407407407408,0,0,0.07407407407407408,48.88888888888891,0)" xlink:href="#au"/><use transform="matrix(0.07407407407407408,0,0,0.07407407407407408,54.740740740740755,0)" xlink:href="#aH"/></g><path d="M240 0l2-218c-23 76-54 145-80 218h-23L58-218 59 0H30v-248h44l77 211c21-75 51-140 76-211h43V0h-30" id="aI"/><use transform="matrix(0.07407407407407408,0,0,0.07407407407407408,0,0)" xlink:href="#aI" id="g"/><path d="M32 76v-337h29V76H32" id="aJ"/><use transform="matrix(0.07407407407407408,0,0,0.07407407407407408,0,0)" xlink:href="#aJ" id="h"/><path d="M190 0L58-211 59 0H30v-248h39L202-35l-2-213h31V0h-41" id="aK"/><path d="M108 0H70L1-190h34L89-25l56-165h34" id="aL"/><path d="M210-169c-67 3-38 105-44 169h-31v-121c0-29-5-50-35-48C34-165 62-65 56 0H25l-1-190h30c1 10-1 24 2 32 10-44 99-50 107 0 11-21 27-35 58-36 85-2 47 119 55 194h-31v-121c0-29-5-49-35-48" id="aM"/><g id="i"><use transform="matrix(0.07407407407407408,0,0,0.07407407407407408,0,0)" xlink:href="#aK"/><use transform="matrix(0.07407407407407408,0,0,0.07407407407407408,19.185185185185187,0)" xlink:href="#aq"/><use transform="matrix(0.07407407407407408,0,0,0.07407407407407408,34,0)" xlink:href="#aL"/><use transform="matrix(0.07407407407407408,0,0,0.07407407407407408,47.33333333333334,0)" xlink:href="#ay"/><use transform="matrix(0.07407407407407408,0,0,0.07407407407407408,62.14814814814816,0)" xlink:href="#aM"/><use transform="matrix(0.07407407407407408,0,0,0.07407407407407408,84.2962962962963,0)" xlink:href="#ax"/><use transform="matrix(0.07407407407407408,0,0,0.07407407407407408,99.11111111111111,0)" xlink:href="#ay"/><use transform="matrix(0.07407407407407408,0,0,0.07407407407407408,113.92592592592592,0)" xlink:href="#ar"/></g><path d="M101-251c82-7 93 87 43 132L82-64C71-53 59-42 53-27h129V0H18c2-99 128-94 128-182 0-28-16-43-45-43s-46 15-49 41l-32-3c6-41 34-60 81-64" id="aN"/><path d="M54-142c48-35 137-8 131 61C196 18 31 33 14-55l32-4c7 23 22 37 52 37 35-1 51-22 54-58 4-55-73-65-99-34H22l8-134h141v27H59" id="aO"/><path d="M68-38c1 34 0 65-14 84H32c9-13 17-26 17-46H33v-38h35" id="aP"/><g id="j"><use transform="matrix(0.07407407407407408,0,0,0.07407407407407408,0,0)" xlink:href="#aN"/><use transform="matrix(0.07407407407407408,0,0,0.07407407407407408,14.814814814814817,0)" xlink:href="#aO"/><use transform="matrix(0.07407407407407408,0,0,0.07407407407407408,29.629629629629633,0)" xlink:href="#aP"/></g><path d="M101-251c68 0 85 55 85 127S166 4 100 4C33 4 14-52 14-124c0-73 17-127 87-127zm-1 229c47 0 54-49 54-102s-4-102-53-102c-51 0-55 48-55 102 0 53 5 102 54 102" id="aQ"/><path d="M27 0v-27h64v-190l-56 39v-29l58-41h29v221h61V0H27" id="aR"/><path d="M99-251c64 0 84 50 84 122C183-37 130 33 47-8c-14-7-20-23-25-40l30-5c6 39 69 39 84 7 9-19 16-44 16-74-10 22-31 35-62 35-49 0-73-33-73-83 0-54 28-83 82-83zm-1 141c31-1 51-18 51-49 0-36-14-67-51-67-34 0-49 23-49 58 0 34 15 58 49 58" id="aS"/><g id="k"><use transform="matrix(0.07407407407407408,0,0,0.07407407407407408,0,0)" xlink:href="#aN"/><use transform="matrix(0.07407407407407408,0,0,0.07407407407407408,14.814814814814817,0)" xlink:href="#aQ"/><use transform="matrix(0.07407407407407408,0,0,0.07407407407407408,29.629629629629633,0)" xlink:href="#aR"/><use transform="matrix(0.07407407407407408,0,0,0.07407407407407408,44.44444444444445,0)" xlink:href="#aS"/></g><path d="M537-626H319V0h-83v-626H18v-74h519v74" id="aT"/><path d="M422-354c0 120-19 253 8 356h-59l-21-70h-5C315-22 265 8 189 8 98 8 39-43 39-134c0-147 152-157 302-151 10-93 1-159-99-153-57 4-110 14-148 35l-25-60c48-30 118-45 194-45 108-1 159 51 159 154zM122-142c-2 47 40 81 89 80 67-1 109-32 130-79v-83c-95-3-214-10-219 82" id="aU"/><path d="M63-93c59 36 240 71 234-43-5-91-121-82-179-124-34-24-62-54-62-113 0-97 59-138 155-139 66-1 112 13 154 32l-19 66c-52-26-221-63-210 39 9 83 124 74 178 118 33 27 64 57 63 118-3 103-68 149-174 151C134 13 81-3 39-25" id="aV"/><path d="M203-225h-46V0H77v-700h80v426l41-14 155-212h93L293-299l-41 33 50 40L469 0h-99" id="aW"/><g id="l"><use transform="matrix(0.017777777777777778,0,0,0.017777777777777778,0,0)" xlink:href="#aT"/><use transform="matrix(0.017777777777777778,0,0,0.017777777777777778,8,0)" xlink:href="#aU"/><use transform="matrix(0.017777777777777778,0,0,0.017777777777777778,16.817777777777778,0)" xlink:href="#aV"/><use transform="matrix(0.017777777777777778,0,0,0.017777777777777778,24.302222222222223,0)" xlink:href="#aW"/><use transform="matrix(0.017777777777777778,0,0,0.017777777777777778,32.81777777777778,0)" xlink:href="#aV"/></g><path d="M143 4C61 4 22-44 18-125c-5-107 100-154 193-111 17 8 29 25 37 43l-32 9c-13-25-37-40-76-40-61 0-88 39-88 99 0 61 29 100 91 101 35 0 62-11 79-27v-45h-74v-28h105v86C228-13 192 4 143 4" id="aX"/><path d="M177-190C167-65 218 103 67 71c-23-6-38-20-44-43l32-5c15 47 100 32 89-28v-30C133-14 115 1 83 1 29 1 15-40 15-95c0-56 16-97 71-98 29-1 48 16 59 35 1-10 0-23 2-32h30zM94-22c36 0 50-32 50-73 0-42-14-75-50-75-39 0-46 34-46 75s6 73 46 73" id="aY"/><path d="M33 0v-248h34V0H33" id="aZ"/><path d="M85-194c31 0 48 13 60 33l-1-100h32l1 261h-30c-2-10 0-23-3-31C134-8 116 4 85 4 32 4 16-35 15-94c0-66 23-100 70-100zm9 24c-40 0-46 34-46 75 0 40 6 74 45 74 42 0 51-32 51-76 0-42-9-74-50-73" id="ba"/><g id="m"><use transform="matrix(0.05,0,0,0.05,0,0)" xlink:href="#aX"/><use transform="matrix(0.05,0,0,0.05,14,0)" xlink:href="#aq"/><use transform="matrix(0.05,0,0,0.05,24,0)" xlink:href="#aq"/><use transform="matrix(0.05,0,0,0.05,34,0)" xlink:href="#aY"/><use transform="matrix(0.05,0,0,0.05,44,0)" xlink:href="#av"/><use transform="matrix(0.05,0,0,0.05,47.95,0)" xlink:href="#ay"/><use transform="matrix(0.05,0,0,0.05,57.95,0)" xlink:href="#aZ"/><use transform="matrix(0.05,0,0,0.05,62.95,0)" xlink:href="#ba"/></g><path d="M185-189c-5-48-123-54-124 2 14 75 158 14 163 119 3 78-121 87-175 55-17-10-28-26-33-46l33-7c5 56 141 63 141-1 0-78-155-14-162-118-5-82 145-84 179-34 5 7 8 16 11 25" id="bb"/><g id="n"><use transform="matrix(0.05,0,0,0.05,0,0)" xlink:href="#bb"/><use transform="matrix(0.05,0,0,0.05,12,0)" xlink:href="#aF"/><use transform="matrix(0.05,0,0,0.05,17,0)" xlink:href="#ar"/><use transform="matrix(0.05,0,0,0.05,22.95,0)" xlink:href="#au"/><use transform="matrix(0.05,0,0,0.05,26.899999999999995,0)" xlink:href="#aH"/><use transform="matrix(0.05,0,0,0.05,36.9,0)" xlink:href="#aY"/></g><g id="o"><use transform="matrix(0.05,0,0,0.05,0,0)" xlink:href="#aI"/><use transform="matrix(0.05,0,0,0.05,14.950000000000001,0)" xlink:href="#aw"/><use transform="matrix(0.05,0,0,0.05,24.950000000000003,0)" xlink:href="#aF"/><use transform="matrix(0.05,0,0,0.05,29.950000000000003,0)" xlink:href="#aF"/><use transform="matrix(0.05,0,0,0.05,34.95,0)" xlink:href="#ay"/><use transform="matrix(0.05,0,0,0.05,44.95,0)" xlink:href="#ar"/></g><g id="p"><use transform="matrix(0.05,0,0,0.05,0,0)" xlink:href="#aZ"/><use transform="matrix(0.05,0,0,0.05,5,0)" xlink:href="#ao"/></g><path d="M127-220V0H93v-220H8v-28h204v28h-85" id="bc"/><g id="q"><use transform="matrix(0.05,0,0,0.05,0,0)" xlink:href="#bc"/><use transform="matrix(0.05,0,0,0.05,10.3,0)" xlink:href="#au"/><use transform="matrix(0.05,0,0,0.05,14.25,0)" xlink:href="#aF"/><use transform="matrix(0.05,0,0,0.05,19.25,0)" xlink:href="#av"/><use transform="matrix(0.05,0,0,0.05,23.2,0)" xlink:href="#ay"/></g><g id="r"><use transform="matrix(0.05,0,0,0.05,0,0)" xlink:href="#ao"/><use transform="matrix(0.05,0,0,0.05,12.950000000000001,0)" xlink:href="#ay"/><use transform="matrix(0.05,0,0,0.05,22.950000000000003,0)" xlink:href="#aF"/><use transform="matrix(0.05,0,0,0.05,27.950000000000003,0)" xlink:href="#aw"/><use transform="matrix(0.05,0,0,0.05,37.95,0)" xlink:href="#au"/><use transform="matrix(0.05,0,0,0.05,41.900000000000006,0)" xlink:href="#av"/><use transform="matrix(0.05,0,0,0.05,45.85000000000001,0)" xlink:href="#aB"/></g><path d="M141 0L90-78 38 0H4l68-98-65-92h35l48 74 47-74h35l-64 92 68 98h-35" id="bd"/><path d="M115-194c55 1 70 41 70 98S169 2 115 4C84 4 66-9 55-30l1 105H24l-1-265h31l2 30c10-21 28-34 59-34zm-8 174c40 0 45-34 45-75s-6-73-45-74c-42 0-51 32-51 76 0 43 10 73 51 73" id="be"/><g id="s"><use transform="matrix(0.05,0,0,0.05,0,0)" xlink:href="#am"/><use transform="matrix(0.05,0,0,0.05,12,0)" xlink:href="#bd"/><use transform="matrix(0.05,0,0,0.05,21,0)" xlink:href="#be"/><use transform="matrix(0.05,0,0,0.05,31,0)" xlink:href="#ay"/><use transform="matrix(0.05,0,0,0.05,41,0)" xlink:href="#aE"/><use transform="matrix(0.05,0,0,0.05,50,0)" xlink:href="#aF"/><use transform="matrix(0.05,0,0,0.05,55,0)" xlink:href="#ay"/><use transform="matrix(0.05,0,0,0.05,65,0)" xlink:href="#ba"/></g><g id="t"><use transform="matrix(0.05,0,0,0.05,0,0)" xlink:href="#bc"/><use transform="matrix(0.05,0,0,0.05,10.3,0)" xlink:href="#au"/><use transform="matrix(0.05,0,0,0.05,14.25,0)" xlink:href="#aM"/><use transform="matrix(0.05,0,0,0.05,29.200000000000003,0)" xlink:href="#ay"/></g><g id="u"><use transform="matrix(0.05,0,0,0.05,0,0)" xlink:href="#aF"/><use transform="matrix(0.05,0,0,0.05,5,0)" xlink:href="#aq"/></g><path d="M212-179c-10-28-35-45-73-45-59 0-87 40-87 99 0 60 29 101 89 101 43 0 62-24 78-52l27 14C228-24 195 4 139 4 59 4 22-46 18-125c-6-104 99-153 187-111 19 9 31 26 39 46" id="bf"/><g id="v"><use transform="matrix(0.05,0,0,0.05,0,0)" xlink:href="#bf"/><use transform="matrix(0.05,0,0,0.05,12.950000000000001,0)" xlink:href="#aq"/><use transform="matrix(0.05,0,0,0.05,22.950000000000003,0)" xlink:href="#aM"/><use transform="matrix(0.05,0,0,0.05,37.900000000000006,0)" xlink:href="#be"/><use transform="matrix(0.05,0,0,0.05,47.900000000000006,0)" xlink:href="#av"/><use transform="matrix(0.05,0,0,0.05,51.85,0)" xlink:href="#ay"/><use transform="matrix(0.05,0,0,0.05,61.85,0)" xlink:href="#aF"/><use transform="matrix(0.05,0,0,0.05,66.85000000000001,0)" xlink:href="#ay"/></g><g id="w"><use transform="matrix(0.05,0,0,0.05,0,0)" xlink:href="#aK"/><use transform="matrix(0.05,0,0,0.05,12.950000000000001,0)" xlink:href="#aA"/><use transform="matrix(0.05,0,0,0.05,22.950000000000003,0)" xlink:href="#aM"/><use transform="matrix(0.05,0,0,0.05,37.900000000000006,0)" xlink:href="#ax"/><use transform="matrix(0.05,0,0,0.05,47.900000000000006,0)" xlink:href="#ay"/><use transform="matrix(0.05,0,0,0.05,57.900000000000006,0)" xlink:href="#ar"/></g><path d="M179-190L93 31C79 59 56 82 12 73V49c39 6 53-20 64-50L1-190h34L92-34l54-156h33" id="bg"/><g id="x"><use transform="matrix(0.05,0,0,0.05,0,0)" xlink:href="#aC"/><use transform="matrix(0.05,0,0,0.05,12,0)" xlink:href="#ar"/><use transform="matrix(0.05,0,0,0.05,17.95,0)" xlink:href="#au"/><use transform="matrix(0.05,0,0,0.05,21.9,0)" xlink:href="#aq"/><use transform="matrix(0.05,0,0,0.05,31.899999999999995,0)" xlink:href="#ar"/><use transform="matrix(0.05,0,0,0.05,37.85,0)" xlink:href="#au"/><use transform="matrix(0.05,0,0,0.05,41.800000000000004,0)" xlink:href="#aF"/><use transform="matrix(0.05,0,0,0.05,46.800000000000004,0)" xlink:href="#bg"/></g><g id="y"><use transform="matrix(0.05,0,0,0.05,0,0)" xlink:href="#aK"/><use transform="matrix(0.05,0,0,0.05,12.950000000000001,0)" xlink:href="#aA"/><use transform="matrix(0.05,0,0,0.05,22.950000000000003,0)" xlink:href="#aM"/><use transform="matrix(0.05,0,0,0.05,37.900000000000006,0)" xlink:href="#ax"/><use transform="matrix(0.05,0,0,0.05,47.900000000000006,0)" xlink:href="#ay"/><use transform="matrix(0.05,0,0,0.05,57.900000000000006,0)" xlink:href="#ar"/></g><path d="M16-82v-28h88v28H16" id="bh"/><g id="z"><use transform="matrix(0.05,0,0,0.05,0,0)" xlink:href="#aR"/><use transform="matrix(0.05,0,0,0.05,10,0)" xlink:href="#bh"/><use transform="matrix(0.05,0,0,0.05,15.949999999999998,0)" xlink:href="#aO"/></g><path d="M205 0l-28-72H64L36 0H1l101-248h38L239 0h-34zm-38-99l-47-123c-12 45-31 82-46 123h93" id="bi"/><g id="A"><use transform="matrix(0.05,0,0,0.05,0,0)" xlink:href="#bi"/><use transform="matrix(0.05,0,0,0.05,12,0)" xlink:href="#aE"/><use transform="matrix(0.05,0,0,0.05,21,0)" xlink:href="#aF"/><use transform="matrix(0.05,0,0,0.05,26,0)" xlink:href="#aA"/><use transform="matrix(0.05,0,0,0.05,36,0)" xlink:href="#aw"/><use transform="matrix(0.05,0,0,0.05,46,0)" xlink:href="#av"/></g><g id="B"><use transform="matrix(0.05,0,0,0.05,0,0)" xlink:href="#aF"/><use transform="matrix(0.05,0,0,0.05,5,0)" xlink:href="#au"/><use transform="matrix(0.05,0,0,0.05,8.95,0)" xlink:href="#aM"/><use transform="matrix(0.05,0,0,0.05,23.9,0)" xlink:href="#ay"/></g><g id="C"><use transform="matrix(0.05,0,0,0.05,0,0)" xlink:href="#aF"/><use transform="matrix(0.05,0,0,0.05,5,0)" xlink:href="#aq"/></g><g id="D"><use transform="matrix(0.05,0,0,0.05,0,0)" xlink:href="#aE"/><use transform="matrix(0.05,0,0,0.05,9,0)" xlink:href="#aq"/><use transform="matrix(0.05,0,0,0.05,19,0)" xlink:href="#aM"/><use transform="matrix(0.05,0,0,0.05,33.95,0)" xlink:href="#be"/><use transform="matrix(0.05,0,0,0.05,43.95,0)" xlink:href="#av"/><use transform="matrix(0.05,0,0,0.05,47.900000000000006,0)" xlink:href="#ay"/><use transform="matrix(0.05,0,0,0.05,57.900000000000006,0)" xlink:href="#aF"/><use transform="matrix(0.05,0,0,0.05,62.900000000000006,0)" xlink:href="#ay"/></g><path d="M418-194H160L90 0H8l265-711h38L577 0h-87zm-231-72h206c-37-104-80-202-104-319-21 119-66 215-102 319" id="bj"/><path d="M262 12c-51 0-69-5-105-20v208H77v-700h55l15 60h4c28-43 75-72 143-72 149 0 198 89 198 252 0 161-73 272-230 272zm147-273c-1-103-28-181-130-181-75 0-107 41-122 107v248c27 20 53 30 102 29 104-2 152-86 150-203" id="bk"/><path d="M268 12C112 12 51-93 49-250c-1-158 69-262 219-262 156 0 217 105 219 262 1 158-69 262-219 262zm136-262c0-105-32-190-136-192-91-2-136 63-136 192 0 105 33 189 136 192 91 2 136-63 136-192" id="bl"/><path d="M94-500h80V0H94v-500zm38-99c-31 0-55-23-55-53s24-56 55-56 58 26 58 56-28 53-58 53" id="bm"/><path d="M313-512c130 0 165 79 165 210V0h-80v-285c-2-94-16-155-105-157-72-1-118 46-136 100V0H77v-500h56l15 61h4c32-42 86-73 161-73" id="bn"/><path d="M200 12C109 10 89-39 89-138v-292H11v-70h78v-99l80-23v122h136v70H169v277c1 59 6 93 57 95 38 1 55-9 84-20l18 61c-35 17-77 30-128 29" id="bo"/><path d="M568-442c-74 2-103 45-118 108V0h-80v-283c0-87-6-159-94-159-65 0-104 47-119 98V0H77v-500h56l15 61h4c37-41 77-74 155-73 72 1 105 26 126 83 28-48 82-81 155-83 130-3 155 82 155 212V0h-80v-301c1-83-12-143-95-141" id="bp"/><path d="M293-58c43 0 98-19 119-40l30 58C404-9 338 12 270 12 112 10 51-92 49-250c-1-159 70-258 220-262 155-4 211 110 184 270H132c0 116 45 184 161 184zm88-247c1-92-30-137-111-137-89 0-129 46-137 137h248" id="bq"/><g id="E"><use transform="matrix(0.017777777777777778,0,0,0.017777777777777778,0,0)" xlink:href="#bj"/><use transform="matrix(0.017777777777777778,0,0,0.017777777777777778,10.4,0)" xlink:href="#bk"/><use transform="matrix(0.017777777777777778,0,0,0.017777777777777778,20.01777777777778,0)" xlink:href="#bk"/><use transform="matrix(0.017777777777777778,0,0,0.017777777777777778,29.63555555555556,0)" xlink:href="#bl"/><use transform="matrix(0.017777777777777778,0,0,0.017777777777777778,39.164444444444456,0)" xlink:href="#bm"/><use transform="matrix(0.017777777777777778,0,0,0.017777777777777778,43.92888888888889,0)" xlink:href="#bn"/><use transform="matrix(0.017777777777777778,0,0,0.017777777777777778,53.653333333333336,0)" xlink:href="#bo"/><use transform="matrix(0.017777777777777778,0,0,0.017777777777777778,59.68,0)" xlink:href="#bp"/><use transform="matrix(0.017777777777777778,0,0,0.017777777777777778,74.11555555555556,0)" xlink:href="#bq"/><use transform="matrix(0.017777777777777778,0,0,0.017777777777777778,83.14666666666669,0)" xlink:href="#bn"/><use transform="matrix(0.017777777777777778,0,0,0.017777777777777778,92.87111111111113,0)" xlink:href="#bo"/><use transform="matrix(0.017777777777777778,0,0,0.017777777777777778,98.89777777777779,0)" xlink:href="#aV"/></g><g id="F"><use transform="matrix(0.05,0,0,0.05,0,0)" xlink:href="#bi"/><use transform="matrix(0.05,0,0,0.05,12,0)" xlink:href="#be"/><use transform="matrix(0.05,0,0,0.05,22,0)" xlink:href="#be"/><use transform="matrix(0.05,0,0,0.05,32,0)" xlink:href="#aq"/><use transform="matrix(0.05,0,0,0.05,42,0)" xlink:href="#au"/><use transform="matrix(0.05,0,0,0.05,45.95,0)" xlink:href="#aH"/><use transform="matrix(0.05,0,0,0.05,55.95,0)" xlink:href="#aF"/><use transform="matrix(0.05,0,0,0.05,60.95,0)" xlink:href="#aM"/><use transform="matrix(0.05,0,0,0.05,75.9,0)" xlink:href="#ay"/><use transform="matrix(0.05,0,0,0.05,85.9,0)" xlink:href="#aH"/><use transform="matrix(0.05,0,0,0.05,95.9,0)" xlink:href="#aF"/><use transform="matrix(0.05,0,0,0.05,100.9,0)" xlink:href="#aZ"/><use transform="matrix(0.05,0,0,0.05,105.9,0)" xlink:href="#ba"/></g><g id="G"><use transform="matrix(0.05,0,0,0.05,0,0)" xlink:href="#aI"/><use transform="matrix(0.05,0,0,0.05,14.950000000000001,0)" xlink:href="#aw"/><use transform="matrix(0.05,0,0,0.05,24.950000000000003,0)" xlink:href="#aF"/><use transform="matrix(0.05,0,0,0.05,29.950000000000003,0)" xlink:href="#aF"/><use transform="matrix(0.05,0,0,0.05,34.95,0)" xlink:href="#ay"/><use transform="matrix(0.05,0,0,0.05,44.95,0)" xlink:href="#ar"/><use transform="matrix(0.05,0,0,0.05,50.900000000000006,0)" xlink:href="#aZ"/><use transform="matrix(0.05,0,0,0.05,55.900000000000006,0)" xlink:href="#ba"/></g><g id="H"><use transform="matrix(0.05,0,0,0.05,0,0)" xlink:href="#ao"/><use transform="matrix(0.05,0,0,0.05,12.950000000000001,0)" xlink:href="#aw"/><use transform="matrix(0.05,0,0,0.05,22.950000000000003,0)" xlink:href="#aF"/><use transform="matrix(0.05,0,0,0.05,27.950000000000003,0)" xlink:href="#ay"/></g><g id="I"><use transform="matrix(0.05,0,0,0.05,0,0)" xlink:href="#bi"/><use transform="matrix(0.05,0,0,0.05,12,0)" xlink:href="#aY"/><use transform="matrix(0.05,0,0,0.05,22,0)" xlink:href="#ay"/><use transform="matrix(0.05,0,0,0.05,32,0)" xlink:href="#aH"/><use transform="matrix(0.05,0,0,0.05,42,0)" xlink:href="#ba"/><use transform="matrix(0.05,0,0,0.05,52,0)" xlink:href="#aw"/></g><g id="J"><use transform="matrix(0.05,0,0,0.05,0,0)" xlink:href="#ao"/><use transform="matrix(0.05,0,0,0.05,12.950000000000001,0)" xlink:href="#aq"/><use transform="matrix(0.05,0,0,0.05,22.950000000000003,0)" xlink:href="#aE"/><use transform="matrix(0.05,0,0,0.05,31.950000000000003,0)" xlink:href="#aA"/><use transform="matrix(0.05,0,0,0.05,41.95,0)" xlink:href="#aM"/><use transform="matrix(0.05,0,0,0.05,56.900000000000006,0)" xlink:href="#ay"/><use transform="matrix(0.05,0,0,0.05,66.9,0)" xlink:href="#aH"/><use transform="matrix(0.05,0,0,0.05,76.9,0)" xlink:href="#aF"/><use transform="matrix(0.05,0,0,0.05,81.9,0)" xlink:href="#aB"/></g><path d="M30 0v-248h33v221h125V0H30" id="br"/><path d="M143 0L79-87 56-68V0H24v-261h32v163l83-92h37l-77 82L181 0h-38" id="bs"/><g id="K"><use transform="matrix(0.05,0,0,0.05,0,0)" xlink:href="#br"/><use transform="matrix(0.05,0,0,0.05,10,0)" xlink:href="#au"/><use transform="matrix(0.05,0,0,0.05,13.949999999999998,0)" xlink:href="#aH"/><use transform="matrix(0.05,0,0,0.05,23.95,0)" xlink:href="#bs"/></g><path d="M262 9C206 9 136 6 85 1v-701c55-8 125-8 187-8 221 0 326 133 326 353C598-133 489 9 262 9zm248-364c0-173-76-287-264-279-26 1-55 2-78 5v560c27 3 67 4 96 4 176 0 246-117 246-290" id="bt"/><path d="M281-58c46 1 86-17 111-36l26 61c-37 28-94 45-157 45C104 12 53-93 49-250c-5-188 108-294 299-254 22 5 42 12 60 21l-23 69c-29-16-66-28-111-28-95 0-142 64-142 192 0 110 39 189 149 192" id="bu"/><path d="M232 12C103 12 68-68 69-198v-302h80v285c0 87 12 158 98 157 78-1 111-51 135-108v-334h80c4 166-10 350 11 500h-55l-20-79h-5c-31 50-80 91-161 91" id="bv"/><g id="L"><use transform="matrix(0.017777777777777778,0,0,0.017777777777777778,0,0)" xlink:href="#bt"/><use transform="matrix(0.017777777777777778,0,0,0.017777777777777778,11.626666666666667,0)" xlink:href="#bl"/><use transform="matrix(0.017777777777777778,0,0,0.017777777777777778,21.155555555555555,0)" xlink:href="#bu"/><use transform="matrix(0.017777777777777778,0,0,0.017777777777777778,29.173333333333332,0)" xlink:href="#bv"/><use transform="matrix(0.017777777777777778,0,0,0.017777777777777778,38.75555555555555,0)" xlink:href="#bp"/><use transform="matrix(0.017777777777777778,0,0,0.017777777777777778,53.19111111111111,0)" xlink:href="#bq"/><use transform="matrix(0.017777777777777778,0,0,0.017777777777777778,62.22222222222222,0)" xlink:href="#bn"/><use transform="matrix(0.017777777777777778,0,0,0.017777777777777778,71.94666666666666,0)" xlink:href="#bo"/><use transform="matrix(0.017777777777777778,0,0,0.017777777777777778,77.97333333333333,0)" xlink:href="#aV"/></g><path d="M63-220v92h138v28H63V0H30v-248h175v28H63" id="bw"/><g id="M"><use transform="matrix(0.05,0,0,0.05,0,0)" xlink:href="#bw"/><use transform="matrix(0.05,0,0,0.05,10.950000000000001,0)" xlink:href="#au"/><use transform="matrix(0.05,0,0,0.05,14.9,0)" xlink:href="#av"/><use transform="matrix(0.05,0,0,0.05,18.85,0)" xlink:href="#ay"/><use transform="matrix(0.05,0,0,0.05,28.85,0)" xlink:href="#aZ"/><use transform="matrix(0.05,0,0,0.05,33.85,0)" xlink:href="#ba"/></g><g id="N"><use transform="matrix(0.05,0,0,0.05,0,0)" xlink:href="#aK"/><use transform="matrix(0.05,0,0,0.05,12.950000000000001,0)" xlink:href="#aw"/><use transform="matrix(0.05,0,0,0.05,22.950000000000003,0)" xlink:href="#aM"/><use transform="matrix(0.05,0,0,0.05,37.900000000000006,0)" xlink:href="#ay"/></g><g id="O"><use transform="matrix(0.05,0,0,0.05,0,0)" xlink:href="#ao"/><use transform="matrix(0.05,0,0,0.05,12.950000000000001,0)" xlink:href="#aq"/><use transform="matrix(0.05,0,0,0.05,22.950000000000003,0)" xlink:href="#aE"/><use transform="matrix(0.05,0,0,0.05,31.950000000000003,0)" xlink:href="#aA"/><use transform="matrix(0.05,0,0,0.05,41.95,0)" xlink:href="#aM"/><use transform="matrix(0.05,0,0,0.05,56.900000000000006,0)" xlink:href="#ay"/><use transform="matrix(0.05,0,0,0.05,66.9,0)" xlink:href="#aH"/><use transform="matrix(0.05,0,0,0.05,76.9,0)" xlink:href="#aF"/><use transform="matrix(0.05,0,0,0.05,81.9,0)" xlink:href="#bc"/><use transform="matrix(0.05,0,0,0.05,91.85000000000001,0)" xlink:href="#bg"/><use transform="matrix(0.05,0,0,0.05,100.85000000000001,0)" xlink:href="#be"/><use transform="matrix(0.05,0,0,0.05,110.85000000000001,0)" xlink:href="#ay"/></g><path d="M623 0c4-191-10-400 10-575h-5l-38 96-182 316h-25L190-480l-36-95h-5l14 104V0H85v-700h62l219 358c12 26 21 55 35 78l31-80 209-356h65V0h-83" id="bx"/><path d="M152-439c26-60 97-88 178-61l-17 77c-74-29-156 5-156 73V0H77v-500h56l15 61h4" id="by"/><g id="P"><use transform="matrix(0.017777777777777778,0,0,0.017777777777777778,0,0)" xlink:href="#bx"/><use transform="matrix(0.017777777777777778,0,0,0.017777777777777778,14.062222222222223,0)" xlink:href="#aU"/><use transform="matrix(0.017777777777777778,0,0,0.017777777777777778,22.880000000000003,0)" xlink:href="#bo"/><use transform="matrix(0.017777777777777778,0,0,0.017777777777777778,28.90666666666667,0)" xlink:href="#bo"/><use transform="matrix(0.017777777777777778,0,0,0.017777777777777778,34.73777777777778,0)" xlink:href="#bq"/><use transform="matrix(0.017777777777777778,0,0,0.017777777777777778,43.76888888888889,0)" xlink:href="#by"/><use transform="matrix(0.017777777777777778,0,0,0.017777777777777778,49.81333333333333,0)" xlink:href="#aV"/></g><g id="Q"><use transform="matrix(0.05,0,0,0.05,0,0)" xlink:href="#bf"/><use transform="matrix(0.05,0,0,0.05,12.950000000000001,0)" xlink:href="#av"/><use transform="matrix(0.05,0,0,0.05,16.900000000000002,0)" xlink:href="#au"/><use transform="matrix(0.05,0,0,0.05,20.85,0)" xlink:href="#ay"/><use transform="matrix(0.05,0,0,0.05,30.85,0)" xlink:href="#aH"/><use transform="matrix(0.05,0,0,0.05,40.85,0)" xlink:href="#aF"/><use transform="matrix(0.05,0,0,0.05,45.85,0)" xlink:href="#aZ"/><use transform="matrix(0.05,0,0,0.05,50.85,0)" xlink:href="#ba"/></g><g id="R"><use transform="matrix(0.05,0,0,0.05,0,0)" xlink:href="#bc"/><use transform="matrix(0.05,0,0,0.05,8.950000000000001,0)" xlink:href="#aw"/><use transform="matrix(0.05,0,0,0.05,18.950000000000003,0)" xlink:href="#aB"/><use transform="matrix(0.05,0,0,0.05,27.950000000000003,0)" xlink:href="#bs"/><use transform="matrix(0.05,0,0,0.05,36.95,0)" xlink:href="#aB"/></g><path d="M158-156l-14 65h45v19h-49L124 0h-19l15-72H56L41 0H22l15-72H2v-19h39l14-65H11v-19h48l15-71h20l-16 71h64l16-71h19l-16 71h37v19h-40zm-83 0L61-91h63l14-65H75" id="bz"/><g id="S"><use transform="matrix(0.05,0,0,0.05,0,0)" xlink:href="#bf"/><use transform="matrix(0.05,0,0,0.05,12.950000000000001,0)" xlink:href="#aw"/><use transform="matrix(0.05,0,0,0.05,22.950000000000003,0)" xlink:href="#aB"/><use transform="matrix(0.05,0,0,0.05,31.950000000000003,0)" xlink:href="#ay"/><use transform="matrix(0.05,0,0,0.05,41.95,0)" xlink:href="#bz"/></g><g id="T"><use transform="matrix(0.05,0,0,0.05,0,0)" xlink:href="#ao"/><use transform="matrix(0.05,0,0,0.05,12.950000000000001,0)" xlink:href="#aw"/><use transform="matrix(0.05,0,0,0.05,22.950000000000003,0)" xlink:href="#aF"/><use transform="matrix(0.05,0,0,0.05,27.950000000000003,0)" xlink:href="#ay"/></g><path d="M140-251c81 0 123 46 123 126C263-46 219 4 140 4 59 4 17-45 17-125s42-126 123-126zm0 227c63 0 89-41 89-101s-29-99-89-99c-61 0-89 39-89 99S79-25 140-24" id="bA"/><g id="U"><use transform="matrix(0.05,0,0,0.05,0,0)" xlink:href="#bA"/><use transform="matrix(0.05,0,0,0.05,14,0)" xlink:href="#be"/><use transform="matrix(0.05,0,0,0.05,24,0)" xlink:href="#ay"/><use transform="matrix(0.05,0,0,0.05,34,0)" xlink:href="#aH"/><use transform="matrix(0.05,0,0,0.05,44,0)" xlink:href="#ay"/><use transform="matrix(0.05,0,0,0.05,54,0)" xlink:href="#ba"/></g><path d="M103-251c84 0 111 97 45 133-19 10-37 24-39 52H78c0-63 77-55 77-114 0-30-21-42-52-43-32 0-53 17-56 46l-32-2c7-45 34-72 88-72zM77 0v-35h34V0H77" id="bB"/><g id="V"><use transform="matrix(0.05,0,0,0.05,0,0)" xlink:href="#br"/><use transform="matrix(0.05,0,0,0.05,10,0)" xlink:href="#au"/><use transform="matrix(0.05,0,0,0.05,13.949999999999998,0)" xlink:href="#aH"/><use transform="matrix(0.05,0,0,0.05,23.95,0)" xlink:href="#bs"/><use transform="matrix(0.05,0,0,0.05,32.95,0)" xlink:href="#bB"/></g><g id="W"><use transform="matrix(0.05,0,0,0.05,0,0)" xlink:href="#bi"/><use transform="matrix(0.05,0,0,0.05,12,0)" xlink:href="#aE"/><use transform="matrix(0.05,0,0,0.05,21,0)" xlink:href="#aE"/><use transform="matrix(0.05,0,0,0.05,30,0)" xlink:href="#aA"/><use transform="matrix(0.05,0,0,0.05,40,0)" xlink:href="#aM"/><use transform="matrix(0.05,0,0,0.05,54.95,0)" xlink:href="#aA"/><use transform="matrix(0.05,0,0,0.05,64.95,0)" xlink:href="#av"/><use transform="matrix(0.05,0,0,0.05,68.9,0)" xlink:href="#aw"/><use transform="matrix(0.05,0,0,0.05,78.9,0)" xlink:href="#aF"/><use transform="matrix(0.05,0,0,0.05,83.9,0)" xlink:href="#ay"/><use transform="matrix(0.05,0,0,0.05,93.9,0)" xlink:href="#ba"/></g><path d="M206 0h-36l-40-164L89 0H53L-1-190h32L70-26l43-164h34l41 164 42-164h31" id="bC"/><g id="X"><use transform="matrix(0.05,0,0,0.05,0,0)" xlink:href="#bC"/><use transform="matrix(0.05,0,0,0.05,12.950000000000001,0)" xlink:href="#aq"/><use transform="matrix(0.05,0,0,0.05,22.950000000000003,0)" xlink:href="#ar"/><use transform="matrix(0.05,0,0,0.05,28.900000000000002,0)" xlink:href="#bs"/></g><g id="Y"><use transform="matrix(0.05,0,0,0.05,0,0)" xlink:href="#aF"/><use transform="matrix(0.05,0,0,0.05,5,0)" xlink:href="#au"/><use transform="matrix(0.05,0,0,0.05,8.95,0)" xlink:href="#aM"/><use transform="matrix(0.05,0,0,0.05,23.9,0)" xlink:href="#ay"/></g><g id="Z"><use transform="matrix(0.05,0,0,0.05,0,0)" xlink:href="#aI"/><use transform="matrix(0.05,0,0,0.05,14.950000000000001,0)" xlink:href="#ay"/><use transform="matrix(0.05,0,0,0.05,24.950000000000003,0)" xlink:href="#ay"/><use transform="matrix(0.05,0,0,0.05,34.95,0)" xlink:href="#aF"/><use transform="matrix(0.05,0,0,0.05,39.95,0)" xlink:href="#au"/><use transform="matrix(0.05,0,0,0.05,43.900000000000006,0)" xlink:href="#aH"/><use transform="matrix(0.05,0,0,0.05,53.900000000000006,0)" xlink:href="#aY"/></g><path d="M378-62c56 2 101-12 135-32l20 65C494 2 428 12 359 12 150 12 58-132 56-350c-2-250 141-394 402-356 25 4 47 11 65 18l-20 73c-32-15-78-23-137-23-158 0-222 119-222 288S215-68 378-62" id="bD"/><path d="M189 12C123 10 86-25 86-100v-600h80v577c-10 72 59 74 108 54l9 63c-18 10-66 18-94 18" id="bE"/><g id="aa"><use transform="matrix(0.017777777777777778,0,0,0.017777777777777778,0,0)" xlink:href="#bD"/><use transform="matrix(0.017777777777777778,0,0,0.017777777777777778,10.151111111111112,0)" xlink:href="#bE"/><use transform="matrix(0.017777777777777778,0,0,0.017777777777777778,15.342222222222222,0)" xlink:href="#bm"/><use transform="matrix(0.017777777777777778,0,0,0.017777777777777778,20.106666666666666,0)" xlink:href="#bq"/><use transform="matrix(0.017777777777777778,0,0,0.017777777777777778,29.137777777777778,0)" xlink:href="#bn"/><use transform="matrix(0.017777777777777778,0,0,0.017777777777777778,38.86222222222222,0)" xlink:href="#bo"/><use transform="matrix(0.017777777777777778,0,0,0.017777777777777778,44.888888888888886,0)" xlink:href="#aV"/></g><g id="ab"><use transform="matrix(0.05,0,0,0.05,0,0)" xlink:href="#bb"/><use transform="matrix(0.05,0,0,0.05,12,0)" xlink:href="#bb"/><use transform="matrix(0.05,0,0,0.05,24,0)" xlink:href="#bz"/></g><g id="ac"><use transform="matrix(0.05,0,0,0.05,0,0)" xlink:href="#bw"/><use transform="matrix(0.05,0,0,0.05,10.950000000000001,0)" xlink:href="#au"/><use transform="matrix(0.05,0,0,0.05,14.9,0)" xlink:href="#ar"/><use transform="matrix(0.05,0,0,0.05,20.85,0)" xlink:href="#aB"/><use transform="matrix(0.05,0,0,0.05,29.85,0)" xlink:href="#aF"/><use transform="matrix(0.05,0,0,0.05,34.85,0)" xlink:href="#aK"/><use transform="matrix(0.05,0,0,0.05,47.800000000000004,0)" xlink:href="#aw"/><use transform="matrix(0.05,0,0,0.05,57.800000000000004,0)" xlink:href="#aM"/><use transform="matrix(0.05,0,0,0.05,72.75,0)" xlink:href="#ay"/></g><g id="ad"><use transform="matrix(0.05,0,0,0.05,0,0)" xlink:href="#br"/><use transform="matrix(0.05,0,0,0.05,10,0)" xlink:href="#aw"/><use transform="matrix(0.05,0,0,0.05,20,0)" xlink:href="#aB"/><use transform="matrix(0.05,0,0,0.05,29,0)" xlink:href="#aF"/><use transform="matrix(0.05,0,0,0.05,34,0)" xlink:href="#aK"/><use transform="matrix(0.05,0,0,0.05,46.95,0)" xlink:href="#aw"/><use transform="matrix(0.05,0,0,0.05,56.95,0)" xlink:href="#aM"/><use transform="matrix(0.05,0,0,0.05,71.9,0)" xlink:href="#ay"/></g><g id="ae"><use transform="matrix(0.05,0,0,0.05,0,0)" xlink:href="#bi"/><use transform="matrix(0.05,0,0,0.05,12,0)" xlink:href="#ba"/><use transform="matrix(0.05,0,0,0.05,22,0)" xlink:href="#ba"/><use transform="matrix(0.05,0,0,0.05,32,0)" xlink:href="#ar"/><use transform="matrix(0.05,0,0,0.05,37.95,0)" xlink:href="#ay"/><use transform="matrix(0.05,0,0,0.05,47.95,0)" xlink:href="#aB"/><use transform="matrix(0.05,0,0,0.05,56.95,0)" xlink:href="#aB"/></g><g id="af"><use transform="matrix(0.05,0,0,0.05,0,0)" xlink:href="#ao"/><use transform="matrix(0.05,0,0,0.05,12.950000000000001,0)" xlink:href="#bA"/><use transform="matrix(0.05,0,0,0.05,26.950000000000003,0)" xlink:href="#at"/></g><path d="M232-93c-1 65-40 97-104 97C67 4 28-28 28-90v-158h33c8 89-33 224 67 224 102 0 64-133 71-224h33v155" id="bF"/><g id="ag"><use transform="matrix(0.05,0,0,0.05,0,0)" xlink:href="#bF"/><use transform="matrix(0.05,0,0,0.05,12.950000000000001,0)" xlink:href="#aB"/><use transform="matrix(0.05,0,0,0.05,21.950000000000003,0)" xlink:href="#ay"/><use transform="matrix(0.05,0,0,0.05,31.950000000000003,0)" xlink:href="#ar"/><use transform="matrix(0.05,0,0,0.05,37.900000000000006,0)" xlink:href="#aB"/></g><g id="ah"><use transform="matrix(0.05,0,0,0.05,0,0)" xlink:href="#aX"/><use transform="matrix(0.05,0,0,0.05,14,0)" xlink:href="#aq"/><use transform="matrix(0.05,0,0,0.05,24,0)" xlink:href="#aq"/><use transform="matrix(0.05,0,0,0.05,34,0)" xlink:href="#aY"/><use transform="matrix(0.05,0,0,0.05,44,0)" xlink:href="#av"/><use transform="matrix(0.05,0,0,0.05,47.95,0)" xlink:href="#ay"/></g><g id="ai"><use transform="matrix(0.05,0,0,0.05,0,0)" xlink:href="#aZ"/><use transform="matrix(0.05,0,0,0.05,5,0)" xlink:href="#ao"/></g><g id="aj"><use transform="matrix(0.05,0,0,0.05,0,0)" xlink:href="#bi"/><use transform="matrix(0.05,0,0,0.05,12,0)" xlink:href="#ba"/><use transform="matrix(0.05,0,0,0.05,22,0)" xlink:href="#ar"/><use transform="matrix(0.05,0,0,0.05,27.950000000000003,0)" xlink:href="#ba"/><use transform="matrix(0.05,0,0,0.05,37.95,0)" xlink:href="#ar"/><use transform="matrix(0.05,0,0,0.05,43.900000000000006,0)" xlink:href="#ay"/><use transform="matrix(0.05,0,0,0.05,53.900000000000006,0)" xlink:href="#aB"/><use transform="matrix(0.05,0,0,0.05,62.900000000000006,0)" xlink:href="#aB"/></g><path d="M106-169C34-169 62-67 57 0H25v-261h32l-1 103c12-21 28-36 61-36 89 0 53 116 60 194h-32v-121c2-32-8-49-39-48" id="bG"/><g id="ak"><use transform="matrix(0.05,0,0,0.05,0,0)" xlink:href="#aC"/><use transform="matrix(0.05,0,0,0.05,12,0)" xlink:href="#bG"/><use transform="matrix(0.05,0,0,0.05,22,0)" xlink:href="#aq"/><use transform="matrix(0.05,0,0,0.05,32,0)" xlink:href="#aH"/><use transform="matrix(0.05,0,0,0.05,42,0)" xlink:href="#ay"/></g><g id="al"><use transform="matrix(0.05,0,0,0.05,0,0)" xlink:href="#am"/><use transform="matrix(0.05,0,0,0.05,12,0)" xlink:href="#aM"/><use transform="matrix(0.05,0,0,0.05,26.950000000000003,0)" xlink:href="#aw"/><use transform="matrix(0.05,0,0,0.05,36.95,0)" xlink:href="#au"/><use transform="matrix(0.05,0,0,0.05,40.900000000000006,0)" xlink:href="#av"/></g></defs></g></svg>